<svg xmlns="http://www.w3.org/2000/svg" width="16" height="16" fill="currentColor" class="bi bi-microscope" viewBox="0 0 16 16">
  <path d="M5 14.5a.5.5 0 0 1-.5-.5v-1a.5.5 0 0 1 .5-.5h6a.5.5 0 0 1 .5.5v1a.5.5 0 0 1-.5.5h-6zM8 5a.5.5 0 0 1 .5.5v3a.5.5 0 0 1-1 0v-3A.5.5 0 0 1 8 5zm3-3a.5.5 0 0 1 .5.5v7a.5.5 0 0 1-1 0v-7a.5.5 0 0 1 .5-.5zM6.5 2a.5.5 0 0 0-.5.5V9a.5.5 0 0 0 1 0V2.5a.5.5 0 0 0-.5-.5z"/>
  <path d="M2 3h12v2H2z"/>
  <path d="M8 13a1 1 0 0 0 1-1V8a1 1 0 0 0-2 0v4a1 1 0 0 0 1 1z"/>
</svg> 